<svg xmlns="http://www.w3.org/2000/svg" width="34.983" height="36.961" viewBox="0 0 34.983 36.961">
  <path id="Path_121" data-name="Path 121" d="M3.421,31.522H36.563A.921.921,0,0,1,37.3,33l-3.867,5.155a1.841,1.841,0,0,1-1.473.737H8.024a1.841,1.841,0,0,1-1.473-.736L2.684,33a.921.921,0,0,1,.736-1.473Zm7.661-7.365H21.833V10.72ZM25.516,2.845V26a1.841,1.841,0,0,1-1.841,1.841H5.336a.921.921,0,0,1-.718-1.5L23.877,2.27a.921.921,0,0,1,1.639.574Z" transform="translate(-2.5 -1.926)" fill="#000091"/>
</svg>
