<svg id="ship_1_" data-name="ship (1)" xmlns="http://www.w3.org/2000/svg" width="51.012" height="32.763" viewBox="0 0 51.012 32.763">
  <path id="Path_127" data-name="Path 127" d="M152.766,120.266h28.018v4.519H152.766Zm0,0" transform="translate(-135.507 -106.709)" fill="#000091"/>
  <path id="Path_128" data-name="Path 128" d="M51.766,61.266h9.829v3.05H51.766Zm0,0" transform="translate(-45.917 -54.374)" fill="#000091"/>
  <path id="Path_129" data-name="Path 129" d="M51.766,102.266h9.829v6.553H51.766Zm0,0" transform="translate(-45.917 -90.742)" fill="#000091"/>
  <path id="Path_130" data-name="Path 130" d="M5.068,174.266H0l1.439,9.716H44.486l6.526-9.716Zm0,0" transform="translate(0 -154.608)" fill="#000091"/>
  <path id="Path_131" data-name="Path 131" d="M81.766.266H84.7v5.31H81.766Zm0,0" transform="translate(-72.528 -0.266)" fill="#000091"/>
  <path id="Path_132" data-name="Path 132" d="M15.07,276.074H55.317l1.237-1.808H14.8Zm0,0" transform="translate(-13.125 -243.311)" fill="#000091"/>
</svg>
