<svg xmlns="http://www.w3.org/2000/svg" width="66.036" height="36.961" viewBox="0 0 66.036 36.961">
  <g id="terre_plaisance_loisir" transform="translate(14321.545 -2280.424)">
    <path id="Path_258" data-name="Path 258" d="M3.421,31.522H36.563A.921.921,0,0,1,37.3,33l-3.867,5.155a1.841,1.841,0,0,1-1.473.737H8.024a1.841,1.841,0,0,1-1.473-.736L2.684,33a.921.921,0,0,1,.736-1.473Zm7.661-7.365H21.833V10.72ZM25.516,2.845V26a1.841,1.841,0,0,1-1.841,1.841H5.336a.921.921,0,0,1-.718-1.5L23.877,2.27a.921.921,0,0,1,1.639.574Z" transform="translate(-14292.992 2278.499)" fill="#000091"/>
    <path id="Path_260" data-name="Path 260" d="M-11424.383-804.583v-8.011h2.187v8.011Zm-8.013,0v-8.011h2.186v8.011Zm-9.47-8.741v-2.914h24.038v2.914Z" transform="translate(-2879.68 3121.969)" fill="#000091"/>
  </g>
</svg>
